<svg width="24" height="24" viewBox="0 0 24 24" fill="none" xmlns="http://www.w3.org/2000/svg">
<path d="M20 15.5C18.75 15.5 17.55 15.3 16.43 14.93C16.2542 14.874 16.0664 14.8667 15.8868 14.909C15.7072 14.9513 15.5424 15.0415 15.41 15.17L13.21 17.37C10.3712 15.9262 8.06378 13.6188 6.62 10.78L8.82 8.57C8.95245 8.44434 9.04632 8.28352 9.0906 8.1064C9.13488 7.92928 9.12773 7.7432 9.07 7.57C8.69065 6.41806 8.49821 5.2128 8.5 4C8.5 3.45 8.05 3 7.5 3H4C3.45 3 3 3.45 3 4C3 13.39 10.61 21 20 21C20.55 21 21 20.55 21 20V16.5C21 15.95 20.55 15.5 20 15.5ZM19 12H21C21 9.61305 20.0518 7.32387 18.364 5.63604C16.6761 3.94821 14.3869 3 12 3V5C15.87 5 19 8.13 19 12ZM15 12H17C17 9.24 14.76 7 12 7V9C13.66 9 15 10.34 15 12Z" fill="black"/>
</svg>
