<svg width="61" height="93" viewBox="0 0 61 93" fill="none" xmlns="http://www.w3.org/2000/svg">
<g clip-path="url(#clip0_38938_301)">
<path d="M12.1293 46.3569C24.7023 48.0205 37.3918 48.282 50.0231 47.1369C50.8795 47.0602 50.8885 45.7077 50.0231 45.7844C37.3918 46.9295 24.7023 46.668 12.1293 45.0044C11.2773 44.8917 11.2818 46.2487 12.1293 46.3569Z" fill="#727272"/>
<path d="M15.0304 92.0307C20.465 92.725 25.9354 93.0631 31.4147 92.9865C36.235 92.9189 41.9251 93.1308 46.4449 91.2237C47.2296 90.8901 46.8843 89.5827 46.0862 89.9208C41.4498 91.8775 35.5086 91.6115 30.5493 91.643C25.3569 91.6791 20.178 91.3365 15.0259 90.6782C14.174 90.57 14.1785 91.9225 15.0304 92.0307Z" fill="#727272"/>
<path d="M11.6047 45.3155C5.33164 51.1673 2.40811 59.8909 3.09864 68.3981C3.45287 72.7937 4.69043 77.0675 6.55127 81.0529C8.2462 84.6866 10.7438 89.8937 14.4923 91.7827C15.2636 92.1704 15.9451 91.0072 15.1694 90.615C11.6809 88.8568 9.30889 83.7939 7.71261 80.3721C5.85626 76.3823 4.64111 72.0498 4.39001 67.6452C3.94162 59.706 6.71269 51.7218 12.5597 46.2713C13.1965 45.6807 12.2414 44.7249 11.6047 45.3155Z" fill="#727272"/>
<path d="M49.5478 46.9522C56.1661 51.1223 56.7893 60.1164 56.6279 67.199C56.4486 75.0975 55.4755 87.6126 46.0862 89.9209C45.2477 90.1283 45.6019 91.4312 46.4449 91.2238C56.2468 88.8163 57.6547 76.3959 57.9507 68.0375C58.2242 60.2156 57.5337 50.3875 50.2248 45.7845C49.4895 45.3247 48.8169 46.4923 49.5478 46.9522Z" fill="#727272"/>
<path d="M16.5774 46.366C11.6406 51.7084 9.46138 60.6303 10.2954 67.785C10.7797 71.9462 12.089 76.0758 13.062 80.1378C14.0395 84.2088 15.0484 88.2483 17.2634 91.8414C17.7208 92.5807 18.8821 91.9 18.4248 91.1606C16.3442 87.7884 15.3757 84.0195 14.4565 80.2009C13.5687 76.5221 12.5329 72.8388 11.8468 69.1195C10.5465 62.0369 12.5822 52.6777 17.528 47.3218C18.1154 46.6816 17.1648 45.7259 16.5774 46.366Z" fill="#727272"/>
<path d="M23.2405 46.9295C19.5637 53.4395 17.6311 60.8331 17.7297 68.3259C17.7791 71.9235 18.2902 75.5257 19.2677 78.9881C20.4829 83.2845 22.3303 87.36 23.1374 91.7736C23.2943 92.6302 24.5902 92.265 24.4332 91.413C23.7292 87.5493 22.2361 83.9517 21.0478 80.2278C19.8955 76.6122 19.2049 72.8838 19.0884 69.0833C18.8552 61.5679 20.7116 54.1427 24.4018 47.6102C24.8323 46.8528 23.6709 46.1721 23.2405 46.9295Z" fill="#727272"/>
<path d="M27.2043 48.2234C28.4822 55.7343 26.9308 63.2586 27.0608 70.8011C27.1191 74.2454 27.8858 77.4508 28.3342 80.8411C28.8006 84.3621 28.0024 87.9822 27.5675 91.4762C27.4599 92.3373 28.8051 92.3282 28.9127 91.4762C29.3521 87.9507 30.1458 84.3034 29.6794 80.7509C29.2041 77.1172 28.4015 73.6728 28.397 69.976C28.388 62.5779 29.7512 55.2339 28.5001 47.8673C28.3522 47.0107 27.0563 47.3714 27.2043 48.2234Z" fill="#727272"/>
<path d="M32.2487 47.5968C34.6118 54.3818 34.8987 61.541 35.1364 68.6596C35.3965 76.3914 35.0108 84.0014 33.576 91.6114C33.4146 92.4635 34.7104 92.8287 34.8718 91.9721C36.3291 84.2448 36.7461 76.5086 36.4816 68.6596C36.2394 61.4238 35.9435 54.1293 33.5446 47.2361C33.2621 46.4246 31.9618 46.7762 32.2487 47.5968Z" fill="#727272"/>
<path d="M37.9075 47.6284C38.4052 49.1567 39.4813 50.1756 40.3064 51.519C41.248 53.0519 41.7637 54.7876 42.0417 56.5548C42.647 60.4139 42.36 64.4534 42.3511 68.3441C42.3421 72.5774 42.6649 77.0541 41.5753 81.1882C40.6158 84.8174 38.4142 87.9462 37.6788 91.652C37.5084 92.5041 38.8043 92.8648 38.9747 92.0127C39.7638 88.0454 42.2031 84.6867 43.064 80.7374C43.9473 76.698 43.6873 72.4511 43.6962 68.3441C43.7052 64.5481 43.9339 60.6664 43.4362 56.8929C43.2165 55.2249 42.8398 53.5748 42.1224 52.051C41.3242 50.3514 39.7862 49.0575 39.2078 47.2722C38.9343 46.4472 37.634 46.7988 37.9075 47.6284Z" fill="#727272"/>
<path d="M44.4495 47.4163C47.1219 49.941 48.4088 53.9714 49.3729 57.4518C50.3773 61.0765 50.041 64.9447 49.8168 68.655C49.3639 76.1839 48.0994 83.7038 44.5078 90.4121C44.0953 91.1785 45.2566 91.8638 45.6692 91.0929C49.4984 83.9382 50.7764 75.8954 51.2023 67.8706C51.4176 63.8311 51.5924 59.8863 50.3324 55.9957C49.2384 52.6189 48.0322 48.9492 45.4001 46.4561C44.7724 45.8655 43.8173 46.8212 44.4495 47.4163Z" fill="#727272"/>
<path d="M16.4697 50.7977C16.3307 51.1538 16.1783 51.5055 16.0124 51.8526C15.8016 52.2899 16.0482 52.8895 16.5953 52.8715C16.9854 52.858 17.2948 52.6822 17.5728 52.4162C17.6625 52.3305 17.7521 52.2403 17.8373 52.1547C17.9494 52.042 17.8015 52.2223 17.8867 52.1186C17.8687 52.1457 17.7746 52.1367 17.8598 52.1457C17.6445 51.8616 17.4293 51.5731 17.2096 51.2891C17.1513 51.5911 17.0885 51.8932 17.0302 52.1998C16.9585 52.5559 17.1334 52.9301 17.501 53.0338C17.8329 53.124 18.2588 52.9211 18.3306 52.5604C18.3889 52.2584 18.4516 51.9563 18.5099 51.6498C18.5996 51.1899 18.3171 50.8383 17.8598 50.7932C17.4876 50.7571 17.1513 50.9555 16.8867 51.1989C16.7926 51.2846 16.7119 51.3747 16.6177 51.4604C16.5863 51.4875 16.5594 51.5145 16.528 51.5416C16.5415 51.528 16.5549 51.519 16.5684 51.5055C16.5011 51.5416 16.5011 51.5461 16.5774 51.5145C16.5011 51.5325 16.5056 51.537 16.5908 51.5145C16.7836 51.8526 16.9764 52.1908 17.1737 52.5334C17.3889 52.0826 17.5862 51.6227 17.7656 51.1583C17.8956 50.8157 17.6221 50.4145 17.2948 50.3243C16.9181 50.2206 16.6043 50.4551 16.4697 50.7977Z" fill="#727272"/>
<path d="M13.1382 58.8902C13.0754 59.2689 13.0127 59.6476 12.9499 60.0217C12.9006 60.3238 12.9813 60.6213 13.2593 60.7836C13.5059 60.9279 13.8781 60.9009 14.0754 60.68C14.2054 60.5312 14.3354 60.3824 14.4655 60.2336C14.5506 60.1345 14.6717 59.9496 14.7748 59.8955C14.6627 59.9271 14.5506 59.9586 14.4341 59.9857C14.4565 59.9812 14.4834 59.9812 14.5058 59.9767C14.3937 59.9451 14.2816 59.9135 14.165 59.8865C14.183 59.9 14.2009 59.9135 14.2188 59.9271C14.1067 59.7332 13.9946 59.5394 13.887 59.341C13.9229 59.7287 13.8153 60.1615 13.7704 60.5537C13.7077 61.1173 14.3758 61.3246 14.7838 61.1398C15.3129 60.8918 15.6672 60.4365 15.8555 59.891C15.4788 59.9902 15.1067 60.0894 14.73 60.1886C14.7166 60.1029 14.7031 60.0172 14.6897 59.9316C14.4699 60.7746 15.7703 61.1353 15.9855 60.2922C16.0842 59.909 15.9945 59.4898 15.6806 59.2328C15.277 58.9037 14.7345 59.0209 14.5551 59.5303C14.4744 59.7558 14.3085 59.873 14.1023 59.9722C14.4386 60.166 14.7748 60.3599 15.1156 60.5582C15.1829 59.9541 15.5057 58.8811 14.6807 58.6512C13.9857 58.4574 13.4969 59.2869 13.1203 59.7242C13.4969 59.9451 13.8691 60.1615 14.2457 60.3824C14.3085 60.0037 14.3713 59.625 14.4341 59.2508C14.4924 58.8902 14.3399 58.5205 13.9633 58.4168C13.6449 58.3311 13.1965 58.5295 13.1382 58.8902Z" fill="#727272"/>
<path d="M12.5597 67.0367C12.6046 67.5687 12.6539 68.1007 12.6987 68.6281C12.766 69.381 13.7749 69.5568 14.0215 68.8085C14.156 68.3937 14.3443 68.0195 14.582 67.6498C14.174 67.5957 13.7614 67.5416 13.3534 67.4875C13.5103 67.8798 13.6179 68.281 13.6762 68.7048C13.7435 69.1827 14.3219 69.2638 14.6627 69.1105C14.8331 69.0339 14.9721 68.8851 15.0618 68.7228C15.1021 68.6507 15.1335 68.565 15.1604 68.4884C15.1739 68.4478 15.1828 68.4072 15.1963 68.3666C15.2187 68.299 15.2097 68.3035 15.1784 68.3802C15.0797 68.4388 14.9811 68.4974 14.8824 68.556C14.9048 68.547 14.9317 68.5425 14.9542 68.5335C14.8331 68.5335 14.7165 68.5335 14.5954 68.5335C14.5865 68.5289 14.5775 68.5244 14.573 68.5154C14.4923 68.4343 14.4116 68.3531 14.3309 68.272C14.3443 68.29 14.3533 68.308 14.3668 68.3261C14.3443 68.1503 14.3219 67.9789 14.2995 67.8031C14.295 67.8257 14.295 67.8482 14.2905 67.8662C14.2412 68.2269 14.3757 68.5921 14.7614 68.7003C15.0752 68.7859 15.5416 68.5921 15.5909 68.2269C15.6312 67.9339 15.6088 67.6679 15.3936 67.447C15.2142 67.2666 14.9407 67.181 14.6896 67.208C14.4295 67.2396 14.2009 67.3929 14.0619 67.6138C14.0036 67.7084 13.9229 67.8392 13.9184 67.9474C13.9139 68.1052 13.8466 67.9925 13.9901 67.9293C14.3174 68.0646 14.6493 68.1998 14.9766 68.3351C14.9183 67.9158 14.8107 67.5146 14.6537 67.1178C14.4385 66.5859 13.757 66.4326 13.4251 66.9555C13.1292 67.4199 12.9005 67.9158 12.7301 68.4343C13.1696 68.4929 13.609 68.556 14.0529 68.6146C14.0081 68.0826 13.9587 67.5506 13.9139 67.0232C13.8825 66.658 13.6269 66.3469 13.2413 66.3469C12.896 66.3604 12.5284 66.6715 12.5597 67.0367Z" fill="#727272"/>
<path d="M14.1784 76.5762C14.2233 77.3561 14.6134 78.0369 15.2905 78.4336C15.7389 78.6906 16.2949 78.3615 16.3038 77.8475C16.3083 77.4508 16.398 77.0856 16.5505 76.7204C16.1738 76.8196 15.8016 76.9188 15.425 77.018C15.6088 77.2434 15.8061 77.4418 16.0258 77.6266C16.3845 77.9287 17.0392 77.8701 17.1513 77.3291C17.1782 77.2073 17.2096 77.1036 17.2499 76.9909C16.8733 77.0901 16.5011 77.1893 16.1245 77.2885C16.1648 77.2659 16.1873 77.293 16.1828 77.3651C16.3263 77.7033 16.8195 77.7754 17.102 77.6086C17.4472 77.4057 17.4876 77.0225 17.3441 76.6844C17.2858 76.5491 17.1917 76.4274 17.0751 76.3327C16.6581 76.0036 16.1469 76.1253 15.9496 76.6303C15.9048 76.743 15.8734 76.8512 15.851 76.9684C16.2276 76.8692 16.5998 76.77 16.9764 76.6708C16.7567 76.486 16.5594 76.2831 16.3756 76.0622C16.0169 75.6204 15.425 75.9495 15.2501 76.3598C15.0528 76.8331 14.9631 77.3336 14.9542 77.8475C15.2905 77.6537 15.6268 77.4598 15.9675 77.2614C15.7075 77.1127 15.5371 76.8782 15.5191 76.5717C15.4743 75.7151 14.1291 75.7061 14.1784 76.5762Z" fill="#727272"/>
<path d="M16.9496 85.8498C17.1065 86.2555 17.2948 86.6297 17.5504 86.9859C17.9495 87.5359 18.7431 87.333 18.8059 86.6433C18.8104 86.6027 18.8821 86.1023 18.8552 86.0797C18.6624 86.2014 18.4741 86.3232 18.2813 86.4449C18.3261 86.508 18.3665 86.5666 18.4158 86.6252C18.5862 86.8416 18.7969 87.0265 19.0705 87.1031C19.2812 87.1572 19.5278 87.1302 19.7117 87.0129C19.8327 86.9318 19.9179 86.8371 19.9807 86.7064C20.0031 86.6523 20.0255 86.5982 20.048 86.5441C20.1511 86.2195 19.9538 86.1654 19.4606 86.3818C19.7296 87.2023 21.0299 86.8506 20.7564 86.0211C20.5681 85.4531 20.0211 85.0834 19.4247 85.3088C19.1826 85.4035 18.9718 85.5838 18.8552 85.8182C18.8194 85.8904 18.6893 86.2014 18.7342 86.2916C18.9942 86.1428 19.2498 85.9896 19.5099 85.8408C19.474 85.7957 19.4381 85.7551 19.4068 85.71C19.1915 85.2727 18.5683 85.0248 18.1199 85.1871C17.4876 85.4125 17.5145 86.0887 17.4652 86.6478C17.8822 86.5351 18.2992 86.4224 18.7207 86.3051C18.5369 86.0527 18.371 85.7867 18.2544 85.4936C17.9315 84.6912 16.6312 85.0383 16.9496 85.8498Z" fill="#727272"/>
<path d="M24.1373 50.9824C23.6531 51.3476 23.2495 51.7804 22.985 52.3349C22.6397 53.0563 23.4423 53.6243 24.0432 53.1555C24.1867 53.0427 24.3301 52.93 24.4736 52.8173C24.5364 52.7677 24.5992 52.7181 24.6664 52.6686C24.6978 52.6415 24.7292 52.619 24.7606 52.5919C24.8727 52.5108 24.8144 52.5243 24.5857 52.628C24.4736 52.5964 24.3615 52.5649 24.2449 52.5378C24.2584 52.5468 24.2718 52.5558 24.2853 52.5649C24.2046 52.4837 24.1239 52.4026 24.0432 52.3214C24.0297 52.2628 24.0118 52.2087 23.9983 52.1501C24.0028 52.087 24.0028 52.078 23.9894 52.1321C23.958 52.1546 23.949 52.3079 23.949 52.3304C23.9176 52.5378 23.9356 52.7407 24.0432 52.93C24.1418 53.1014 24.3167 53.2546 24.5095 53.3042C24.5902 53.3268 24.6933 53.3358 24.7785 53.3358C24.8592 53.3358 24.931 53.3223 25.0027 53.2952C25.0969 53.2682 25.0655 53.2591 24.9041 53.2682C24.8054 53.2096 24.7068 53.1509 24.6081 53.0923C24.6216 53.1059 24.635 53.1194 24.6485 53.1329C24.5902 53.0337 24.5319 52.9345 24.4736 52.8354C24.4781 52.8489 24.4826 52.8669 24.4871 52.8804C24.5095 52.7046 24.5319 52.5333 24.5543 52.3575C24.5454 52.371 24.5409 52.3845 24.5319 52.3981C24.1239 53.1645 25.2852 53.8497 25.6933 53.0788C25.8681 52.7542 25.8278 52.389 25.5543 52.1321C25.4108 51.9968 25.218 51.9157 25.0207 51.9112C24.9086 51.9066 24.7785 51.9788 24.6799 51.9698C24.792 52.0013 24.9041 52.0329 25.0207 52.0599C25.0027 52.0464 24.9848 52.0329 24.9713 52.0239C25.0521 52.105 25.1328 52.1862 25.2135 52.2673C25.2045 52.2493 25.1955 52.2312 25.1866 52.2132C25.218 52.3259 25.2493 52.4386 25.2762 52.5558C25.2673 52.4702 25.2807 52.5153 25.3121 52.389C25.348 52.2312 25.3525 52.0599 25.3166 51.8976C25.2404 51.573 24.9982 51.3386 24.6754 51.28C24.3391 51.2169 24.1104 51.3927 23.8548 51.5911C23.5993 51.7894 23.3437 51.9923 23.0881 52.1907C23.4423 52.4657 23.7921 52.7362 24.1463 53.0112C24.3077 52.6776 24.514 52.371 24.8144 52.1456C25.1059 51.9292 25.2538 51.5595 25.0565 51.2214C24.8906 50.9374 24.4333 50.766 24.1373 50.9824Z" fill="#727272"/>
<path d="M21.5052 58.5925C21.3931 59.1335 21.2855 59.6745 21.1734 60.22C21.0344 60.9097 21.7788 61.3065 22.2989 60.8782C22.4513 60.7519 22.5859 60.5941 22.6845 60.4228C22.7518 60.3056 22.8325 60.0667 22.8684 60.0081C22.7876 60.0892 22.7069 60.1704 22.6262 60.2515C22.6486 60.238 22.6666 60.2245 22.689 60.2064C22.5769 60.238 22.4648 60.2696 22.3482 60.2966C22.3751 60.2921 22.402 60.2921 22.4289 60.2876C22.3168 60.256 22.2047 60.2245 22.0881 60.1974C21.9805 60.1478 21.976 59.972 22.0074 60.2019C22.0164 60.2605 22.0299 60.3101 22.0478 60.3642C22.1106 60.5671 22.2227 60.7474 22.3931 60.8737C22.55 60.9909 22.7338 61.054 22.9311 61.0495C23.0522 61.045 23.1643 61.0134 23.2719 60.9593C23.3302 60.9368 23.3795 60.9052 23.4244 60.8646C23.5409 60.7835 23.5096 60.788 23.3347 60.8692C23.2226 60.8376 23.1105 60.806 22.9939 60.779C23.0118 60.788 23.0163 60.797 23.0298 60.8331C23.3167 61.6491 24.6171 61.2974 24.3256 60.4724C24.2001 60.1163 24.0162 59.7872 23.671 59.6113C23.4916 59.5167 23.2674 59.4896 23.0701 59.5347C22.8728 59.5798 22.7563 59.7105 22.5859 59.7917C22.698 59.7601 22.8101 59.7286 22.9266 59.7015C22.9042 59.7015 22.8773 59.7015 22.8549 59.7015C22.967 59.7331 23.0791 59.7646 23.1957 59.7917C23.3167 60.0036 23.3526 60.0351 23.3033 59.8863C23.2943 59.8277 23.2854 59.7691 23.2764 59.7105C23.245 59.5933 23.1957 59.4716 23.1329 59.3724C22.967 59.1109 22.6935 58.9396 22.3841 58.9441C22.0792 58.9486 21.8012 59.1244 21.6577 59.3904C21.5366 59.6158 21.5456 59.7511 21.3393 59.9224C21.716 60.1433 22.0881 60.3597 22.4648 60.5806C22.5769 60.0396 22.6845 59.4986 22.7966 58.9576C22.976 58.1011 21.6801 57.7404 21.5052 58.5925Z" fill="#727272"/>
<path d="M20.9851 65.5039C20.8461 66.2298 20.7564 66.9601 20.734 67.695C20.716 68.2089 21.3169 68.5335 21.7473 68.281C21.9446 68.1638 22.0881 68.006 22.1957 67.8032C22.2361 67.7265 22.3527 67.5507 22.3303 67.4831C22.3258 67.4741 22.2854 67.5327 22.3034 67.5236C22.1913 67.5552 22.0792 67.5868 21.9626 67.6138C21.9536 67.6183 21.9402 67.6183 21.9312 67.6228C21.8505 67.5417 21.7698 67.4605 21.6891 67.3794C21.7653 67.4786 21.7563 67.4695 21.7653 67.5732C21.8146 68.1278 22.4782 68.4974 22.9132 68.0511C22.9625 67.997 23.0118 67.9474 23.0656 67.8978C22.9715 67.9429 22.8728 67.9339 22.7787 67.8798C22.7204 67.7806 22.6621 67.6814 22.6038 67.5823C22.6127 67.6093 22.6217 67.6364 22.6352 67.6634C22.7607 68.006 23.0925 68.2405 23.4647 68.1368C23.792 68.0466 24.0611 67.6499 23.9355 67.3027C23.5858 66.347 22.5679 66.4687 21.9626 67.0954C22.3437 67.2531 22.7293 67.4154 23.1105 67.5732C23.0567 66.9195 22.7338 66.2117 21.9626 66.2613C21.6487 66.2793 21.3707 66.4642 21.2048 66.7302C21.1465 66.8249 21.1061 66.9331 21.0613 67.0367C21.012 67.1495 20.9268 67.19 21.0658 67.1089C21.4021 67.3027 21.7384 67.4966 22.0792 67.695C22.0971 67.0773 22.1644 66.4687 22.2809 65.8601C22.4468 65.0125 21.151 64.6518 20.9851 65.5039Z" fill="#727272"/>
<path d="M21.6532 73.2265C21.8056 73.8306 21.9895 74.4212 22.2047 75.0028C22.3796 75.4761 22.9401 75.6745 23.3302 75.3003C23.5006 75.1335 23.6171 74.9396 23.6754 74.7052C23.6979 74.6105 23.7158 74.4978 23.7203 74.4031C23.7337 74.1146 23.7023 74.3536 23.7292 74.34C23.6171 74.3716 23.505 74.4031 23.3885 74.4302C23.4198 74.4302 23.4468 74.4257 23.4781 74.4257C23.366 74.3941 23.2539 74.3626 23.1374 74.3355C23.0477 74.2949 23.0746 74.2544 23.1463 74.3806C23.1822 74.4437 23.2136 74.4978 23.2584 74.5564C23.3974 74.7368 23.5678 74.8585 23.7965 74.89C23.9983 74.9171 24.1911 74.8675 24.3615 74.7503C24.4556 74.6827 24.5408 74.606 24.6036 74.5068C24.6305 74.4527 24.6574 74.3986 24.6798 74.3445C24.7695 74.1687 24.6933 74.2138 24.4512 74.4843C24.3301 74.4843 24.2135 74.4843 24.0924 74.4843C24.0386 74.4392 23.9893 74.3896 23.9355 74.3445C23.9041 74.2318 23.8727 74.1191 23.8458 74.0019C23.8458 74.029 23.8458 74.056 23.8458 74.0831C23.8324 74.9532 25.1776 74.9532 25.191 74.0831C25.2 73.6277 24.8861 73.2716 24.4512 73.1814C24.218 73.1318 23.9848 73.1814 23.792 73.3211C23.6979 73.3888 23.6216 73.4654 23.5589 73.5601C23.5454 73.5871 23.5319 73.6187 23.514 73.6457C23.3974 73.8712 23.4288 73.8667 23.6127 73.6322C23.7248 73.6007 23.8369 73.5691 23.9534 73.5421C23.931 73.5466 23.9086 73.5466 23.8862 73.5511C23.9983 73.5826 24.1104 73.6142 24.227 73.6412C24.4198 73.7359 24.3211 73.7044 24.2494 73.5781C24.1956 73.4789 24.1238 73.3843 24.0431 73.3121C23.7875 73.0822 23.4512 73.0236 23.1329 73.1363C22.8773 73.2265 22.6845 73.4248 22.5544 73.6548C22.4827 73.7855 22.4468 73.9162 22.4199 74.0605C22.4065 74.1236 22.4199 74.304 22.3796 74.3445C22.7562 74.4437 23.1284 74.5429 23.505 74.6421C23.2898 74.0605 23.106 73.4654 22.9535 72.8658C22.7338 72.0273 21.4379 72.3834 21.6532 73.2265Z" fill="#727272"/>
<path d="M22.3302 79.6869C22.5724 80.4037 22.8818 81.0935 23.2629 81.7427C23.5364 82.207 24.1418 82.1529 24.4242 81.7427C24.5005 81.63 24.5543 81.5128 24.5901 81.382C24.5946 81.3414 24.5991 81.3054 24.6081 81.2648C24.6798 81.0033 24.617 81.0123 24.4108 81.2964C24.2897 81.2964 24.1731 81.2964 24.0521 81.2964C23.8637 81.2378 23.9489 81.2513 24.0476 81.3595C24.1193 81.4361 24.209 81.5173 24.3032 81.5714C24.496 81.6796 24.7247 81.7202 24.9444 81.7021C25.4466 81.6661 25.7918 81.3324 25.9577 80.8771C26.2582 80.0611 24.9578 79.7049 24.6619 80.5164C24.7471 80.291 24.9578 80.4172 24.922 80.309C24.8951 80.2324 24.7381 80.1287 24.6664 80.0881C24.4467 79.9619 24.1821 79.9349 23.9445 80.016C23.7247 80.0881 23.5499 80.2549 23.4378 80.4578C23.3391 80.6382 23.366 80.9086 23.2584 81.0619C23.644 81.0619 24.0341 81.0619 24.4198 81.0619C24.0924 80.5074 23.8279 79.9394 23.6216 79.3307C23.3526 78.5102 22.0522 78.8619 22.3302 79.6869Z" fill="#727272"/>
<path d="M24.1014 87.4008C24.1059 87.775 24.1597 88.1492 24.2763 88.5008C24.3615 88.7578 24.5633 88.9471 24.8368 88.9832C25.0834 89.0148 25.3928 88.9021 25.5049 88.6586C25.5811 88.4963 25.6574 88.334 25.7336 88.1762C25.7695 88.0996 25.8053 88.0274 25.8367 87.9508C25.8546 87.9147 25.8726 87.8742 25.8905 87.8381C25.9264 87.7705 25.9264 87.7705 25.8905 87.8381C25.7919 87.8967 25.6932 87.9553 25.5946 88.0139C25.608 88.0094 25.626 88.0004 25.6394 87.9959C25.5184 87.9959 25.4018 87.9959 25.2807 87.9959C25.2583 87.9869 25.2314 87.9733 25.209 87.9643C25.1282 87.8832 25.0475 87.802 24.9668 87.7209C24.8996 87.6082 24.9623 87.7028 24.9892 87.7795C25.0117 87.8516 25.0386 87.9192 25.061 87.9914C25.1103 88.1311 25.1596 88.2754 25.2045 88.4152C25.3211 88.7623 25.6663 88.9877 26.034 88.8885C26.3658 88.7984 26.6214 88.4016 26.5048 88.0545C26.312 87.4955 26.1506 86.5758 25.3704 86.6795C24.765 86.7606 24.5633 87.5 24.3391 87.9779C24.7471 88.032 25.1596 88.0861 25.5677 88.1402C25.4825 87.8742 25.4421 87.6578 25.4376 87.3963C25.4332 87.0446 25.1327 86.702 24.7651 86.72C24.4108 86.7381 24.0969 87.0221 24.1014 87.4008Z" fill="#727272"/>
<path d="M30.2803 88.2211C30.2444 88.5277 30.2085 88.8388 30.1727 89.1453C30.1368 89.4339 30.4058 89.7269 30.6659 89.799C30.9708 89.8847 31.2533 89.7359 31.4237 89.488C31.5448 89.3121 31.6658 89.1408 31.7869 88.965C31.8407 88.8838 31.899 88.8072 31.9528 88.7261C31.9752 88.6945 31.9976 88.6629 32.02 88.6314C32.1187 88.4961 32.1052 88.5051 31.9842 88.6584C31.8721 88.69 31.76 88.7215 31.6434 88.7486C31.6658 88.7486 31.6838 88.7486 31.7062 88.7486C31.5941 88.717 31.482 88.6855 31.3654 88.6584C31.2309 88.424 31.186 88.3789 31.2309 88.5232C31.2443 88.5773 31.2533 88.6359 31.2667 88.69C31.2892 88.8027 31.3116 88.9109 31.3385 89.0236C31.3878 89.258 31.4102 89.533 31.5313 89.7449C31.6479 89.9433 31.8407 90.1146 32.0649 90.1777C32.4102 90.2724 32.6926 90.0966 32.8944 89.8261C33.1141 89.533 32.9393 89.0687 32.6523 88.9019C32.307 88.699 31.9528 88.8523 31.7331 89.1453C31.7241 89.1589 31.7151 89.1724 31.7062 89.1814C31.899 89.0687 32.0918 88.956 32.2891 88.8478C32.2756 88.8478 32.2622 88.8523 32.2487 88.8523C32.3608 88.8838 32.4729 88.9154 32.5895 88.9425C32.7061 89.0011 32.7778 89.3302 32.7106 88.9966C32.6926 88.9019 32.6702 88.8117 32.6523 88.717C32.6164 88.5502 32.585 88.3834 32.5492 88.2166C32.4684 87.865 32.2577 87.5223 31.89 87.4186C31.482 87.3059 31.1591 87.5404 30.9305 87.8469C30.7018 88.158 30.4865 88.4781 30.2668 88.7937C30.6838 88.9064 31.1008 89.0191 31.5223 89.1363C31.5582 88.8297 31.5941 88.5187 31.6299 88.2121C31.6703 87.8469 31.2892 87.5359 30.9574 87.5359C30.5583 87.5449 30.3251 87.8605 30.2803 88.2211Z" fill="#727272"/>
<path d="M30.926 75.8729C30.76 76.5942 30.6793 77.3336 30.6928 78.073C30.7018 78.7086 31.6344 79.0377 31.9483 78.4156C32.0828 78.1451 32.2173 77.8791 32.3518 77.6086C32.4505 77.4102 32.5222 77.1623 32.7016 77.0225C32.6029 77.0811 32.5043 77.1397 32.4057 77.1984C32.4057 77.1938 32.4057 77.1893 32.4101 77.1848C32.1949 77.018 31.9797 76.8557 31.76 76.6889C31.8452 77.009 31.9304 77.3291 32.0156 77.6492C32.1232 78.0504 32.6388 78.2939 33.002 78.0549C33.0648 78.0144 33.1276 77.9693 33.1903 77.9287C33.9078 77.4508 33.2352 76.2787 32.5133 76.761C32.4505 76.8016 32.3877 76.8467 32.3249 76.8873C32.6523 77.0225 32.9841 77.1578 33.3114 77.293C33.2262 76.9729 33.141 76.6528 33.0558 76.3328C32.9796 76.0487 32.7016 75.8323 32.4057 75.8368C31.4595 75.8549 31.1367 77.0361 30.787 77.7394C31.204 77.8521 31.621 77.9648 32.0425 78.082C32.0335 77.4553 32.0873 76.8512 32.2263 76.2381C32.4146 75.386 31.1188 75.0253 30.926 75.8729Z" fill="#727272"/>
<path d="M29.6436 65.7563C29.675 66.2883 29.7019 66.8157 29.7333 67.3477C29.7691 68.015 30.6211 68.2719 30.9888 67.6904C31.2488 67.2756 31.5089 66.8653 31.769 66.4506C31.3834 66.4506 30.9933 66.4506 30.6076 66.4506C30.7018 66.6129 30.7601 66.7616 30.7691 66.951C30.8005 67.5461 31.4775 67.8301 31.917 67.4289C32.2577 67.1223 32.4774 66.7526 32.6434 66.3243C32.316 66.4596 31.9842 66.5948 31.6569 66.7301C31.6569 66.7391 31.6569 66.7481 31.6524 66.7526C31.5941 66.6534 31.5358 66.5543 31.4775 66.4551C31.491 66.4821 31.4999 66.5137 31.5134 66.5407C31.6524 66.8789 31.9573 67.1178 32.3429 67.0141C32.6568 66.9284 32.9527 66.5227 32.8137 66.1801C32.6972 65.9051 32.5761 65.7383 32.334 65.5579C31.9528 65.2739 31.4865 65.5985 31.3475 65.9637C31.2668 66.1711 31.1278 66.3243 30.9664 66.4731C31.3475 66.6309 31.7331 66.7932 32.1142 66.951C32.0918 66.5272 31.9842 66.135 31.769 65.7698C31.5044 65.3235 30.8767 65.3415 30.6076 65.7698C30.3476 66.1846 30.0875 66.5948 29.8274 67.0096C30.2444 67.1223 30.6615 67.235 31.0829 67.3522C31.0516 66.8202 31.0247 66.2928 30.9933 65.7608C30.9395 64.8907 29.5943 64.8862 29.6436 65.7563Z" fill="#727272"/>
<path d="M30.0068 56.8162C29.9664 57.1588 29.9485 57.5014 29.9575 57.8441C29.9709 58.3129 30.5359 58.7457 30.9708 58.4302C31.195 58.2679 31.334 58.083 31.4103 57.817C31.4282 57.7539 31.4461 57.6818 31.4551 57.6187C31.4641 57.56 31.4999 57.5555 31.4506 57.6006C31.2175 57.817 30.9708 58.1281 30.5987 57.6773C30.639 57.7269 30.6256 57.7223 30.5987 57.6637C30.6301 57.7314 30.6525 57.808 30.6839 57.8756C30.7377 57.9928 30.8184 58.0965 30.9081 58.1867C31.1861 58.4617 31.5986 58.5158 31.9349 58.322C32.2532 58.1416 32.3564 57.7088 32.177 57.3977C31.9887 57.0777 31.5762 56.974 31.2578 57.1543C31.2444 57.1633 31.2264 57.1723 31.213 57.1813C31.3251 57.1498 31.4372 57.1182 31.5537 57.0912C31.5896 57.0867 31.9125 57.267 31.8856 57.276C31.9035 57.3121 31.9035 57.3121 31.89 57.2805C31.8766 57.2445 31.8631 57.2084 31.8452 57.1723C31.7914 57.0416 31.7286 56.9199 31.63 56.8117C31.4103 56.5817 31.0695 56.469 30.7601 56.5682C30.4686 56.6584 30.2758 56.8928 30.1817 57.1768C30.1592 57.24 30.1503 57.3031 30.1323 57.3707C30.1234 57.4023 30.1144 57.4293 30.1099 57.4609C30.092 57.5195 30.092 57.5195 30.1144 57.4609C30.1413 57.3752 30.1996 57.3076 30.2893 57.2625C30.6256 57.4564 30.9619 57.6502 31.3026 57.8486C31.2937 57.5059 31.3116 57.1633 31.352 56.8207C31.3968 56.469 31.0112 56.1309 30.6794 56.1444C30.2803 56.1625 30.0561 56.442 30.0068 56.8162Z" fill="#727272"/>
<path d="M29.5943 49.8823C29.4687 50.3782 29.5315 50.8877 29.796 51.325C30.1099 51.8569 30.8318 51.6946 31.0246 51.1627C31.0964 50.9643 30.9888 51.2844 31.056 51.0815C31.0829 51.0049 31.1054 51.0409 31.0381 51.0725C30.8318 51.1807 30.5538 51.1086 30.4911 50.8381C30.5763 51.1942 30.9753 51.4061 31.3206 51.3114C31.6793 51.2123 31.8766 50.8381 31.7914 50.4774C31.6703 49.9635 31.1143 49.6884 30.6166 49.8057C30.1279 49.9274 29.8902 50.3557 29.7288 50.7975C30.1368 50.7434 30.5493 50.6893 30.9574 50.6352C30.8901 50.518 30.8812 50.527 30.8677 50.3872C30.8767 50.4594 30.8722 50.3692 30.8722 50.3467C30.8812 50.1483 30.8453 50.4278 30.8901 50.234C30.9753 49.8913 30.778 49.4856 30.4193 49.3999C30.0741 49.3278 29.6884 49.5126 29.5943 49.8823Z" fill="#727272"/>
<path d="M10.3671 48.2865C10.1698 48.548 9.99044 48.823 9.8335 49.1116C9.56895 49.5849 10.0173 50.3243 10.5913 50.1034C10.7975 50.0268 10.9993 49.9456 11.2056 49.869C10.9321 49.7112 10.6541 49.5534 10.3761 49.3956C10.4119 49.4993 10.4299 49.5669 10.4254 49.6706C10.4209 50.0132 10.7393 50.3784 11.098 50.3468C11.4343 50.3198 11.7212 50.2386 12.0217 50.0944C12.349 49.9366 12.4342 49.4632 12.2638 49.1702C12.0665 48.8321 11.6719 48.7689 11.3446 48.9267C11.2773 48.9583 11.1518 48.9898 11.098 48.9944C11.3222 49.2198 11.5464 49.4452 11.7706 49.6706C11.775 49.4542 11.7437 49.2378 11.6719 49.0349C11.5598 48.7148 11.2056 48.4263 10.8424 48.5616C10.6361 48.6382 10.4344 48.7193 10.2281 48.796C10.4792 49.1251 10.7348 49.4587 10.9859 49.7878C11.1473 49.4993 11.3222 49.2243 11.5195 48.9628C11.7392 48.6698 11.5643 48.2054 11.2773 48.0386C10.941 47.8447 10.5868 47.9935 10.3671 48.2865Z" fill="#727272"/>
<path d="M6.56029 55.8786C6.30471 56.4421 6.08499 57.0192 5.90564 57.6143C5.79354 57.984 6.04015 58.3266 6.37645 58.4483C6.66342 58.552 6.97281 58.4889 7.22391 58.3266C7.33153 58.2544 7.40327 58.1823 7.48398 58.0876C7.79338 57.718 7.3674 58.1958 7.1163 57.8848C7.05801 57.7856 6.99972 57.6864 6.94143 57.5872C6.90556 57.461 6.93246 57.7225 6.93246 57.718C6.94591 57.8217 6.97281 57.9299 7.02662 58.0245C7.12975 58.2003 7.31808 58.3446 7.51089 58.3987C7.87409 58.4979 8.34042 58.3581 8.49735 57.9885C8.64084 57.6548 8.596 57.2626 8.25522 57.0643C7.97273 56.8974 7.4795 56.9696 7.33601 57.3077C7.34947 57.2897 7.36292 57.2716 7.38085 57.2581C7.4795 57.1995 7.57815 57.1409 7.67679 57.0823C7.81131 57.1229 7.94583 57.1634 8.08035 57.204C8.13864 57.3032 8.19693 57.4024 8.25522 57.5016C8.29109 57.6278 8.26419 57.3167 8.25522 57.2852C8.21935 57.1499 8.15657 57.0282 8.0669 56.929C7.90099 56.7532 7.68576 56.6495 7.44363 56.636C7.22391 56.6269 7.02214 56.6901 6.84278 56.8163C6.75759 56.8749 6.68584 56.9425 6.61858 57.0237C6.34058 57.3483 6.53339 57.0733 6.73965 57.1454C6.89659 57.4249 7.05353 57.6999 7.21046 57.9794C7.35395 57.4971 7.52434 57.0282 7.7306 56.5683C7.87857 56.2347 7.82476 55.8425 7.48847 55.6441C7.19253 55.4683 6.70826 55.545 6.56029 55.8786Z" fill="#727272"/>
<path d="M5.07161 63.8539C4.92812 64.6293 4.92812 65.3822 5.08057 66.1576C5.1568 66.5408 5.56932 66.6851 5.9101 66.631C6.1074 66.5994 6.29124 66.4867 6.43024 66.3379C6.48853 66.2748 6.54234 66.1982 6.59166 66.126C6.61857 66.0855 6.64099 66.0449 6.66341 65.9998C6.70376 65.9367 6.69031 65.9412 6.61408 66.0043C6.49302 66.0043 6.37643 66.0043 6.25537 66.0043C6.28675 66.0133 6.31814 66.0223 6.34953 66.0314C6.25088 65.9728 6.15224 65.9141 6.05359 65.8555C6.00427 65.7518 5.99978 65.7564 6.04462 65.8691C6.06704 65.9232 6.08946 65.9773 6.11188 66.0314C6.18362 66.1666 6.28227 66.2748 6.40782 66.356C6.70824 66.5588 6.98176 66.5453 7.30461 66.3965C7.63642 66.2478 7.71713 65.7609 7.54674 65.4723C7.34945 65.1297 6.95935 65.0801 6.62753 65.2289C6.60511 65.2379 6.57821 65.2514 6.55579 65.2604C6.73066 65.2379 6.90105 65.2154 7.07593 65.1928C7.04902 65.1838 7.02212 65.1793 6.99522 65.1703C7.09386 65.2289 7.19251 65.2875 7.29116 65.3461C7.31806 65.4363 7.31806 65.4453 7.29564 65.3777C7.27322 65.3055 7.24632 65.2379 7.21493 65.1748C7.17457 65.0981 7.12973 65.0215 7.06696 64.9584C6.87863 64.7555 6.61857 64.6608 6.34505 64.6879C6.1074 64.7104 5.89665 64.8276 5.73075 64.999C5.65004 65.0801 5.58278 65.1748 5.52448 65.274C5.51103 65.301 5.4931 65.3281 5.47965 65.3551C5.39445 65.4814 5.41687 65.4678 5.55139 65.3191C5.82491 65.4768 6.10291 65.6346 6.38092 65.7924C6.27779 65.2695 6.2733 64.733 6.37195 64.21C6.43921 63.8493 6.2733 63.4797 5.90114 63.376C5.56932 63.2903 5.13887 63.4932 5.07161 63.8539Z" fill="#727272"/>
<path d="M6.03115 73.6142C6.21947 73.9929 6.40331 74.3716 6.59164 74.7503C6.75755 75.0839 7.21042 75.1606 7.51085 74.9938C7.75298 74.8585 7.91889 74.6421 7.99511 74.3716C8.03098 74.2499 8.0534 74.0966 8.03995 73.9704C8.0265 73.8261 8.08927 73.8667 8.01305 73.9343C7.9144 73.9929 7.81575 74.0515 7.71711 74.1101C7.70814 74.1146 7.69917 74.1146 7.6902 74.1192C7.57811 74.0876 7.46601 74.056 7.34942 74.029C7.58259 74.1642 7.69469 74.3806 8.03547 74.3806C8.43902 74.3806 8.5287 74.1417 8.77083 73.9028C8.67219 73.9614 8.57354 74.02 8.47489 74.0786C8.34486 73.9974 8.21483 73.9163 8.08479 73.8306C8.1386 74.1913 8.59148 74.3897 8.91432 74.304C9.29994 74.1958 9.43894 73.8351 9.38513 73.47C9.32236 73.0642 8.94122 72.7622 8.54664 72.7216C8.08479 72.6765 7.78437 72.929 7.56465 73.3077C7.64537 73.2265 7.72608 73.1454 7.80679 73.0642C7.78437 73.0822 7.75746 73.1003 7.73504 73.1183C7.84714 73.0868 7.95924 73.0552 8.07582 73.0281C8.0534 73.0281 8.0265 73.0281 8.00408 73.0281C8.11618 73.0597 8.22828 73.0913 8.34486 73.1183C8.26415 73.0732 8.0534 72.8433 7.87405 72.7937C7.61846 72.7216 7.34942 72.7757 7.13868 72.9335C6.95035 73.0732 6.82032 73.2806 6.75306 73.5015C6.70822 73.6413 6.75755 73.9253 6.6858 74.0245C6.76651 73.9433 6.84722 73.8622 6.92793 73.781C6.90103 73.7946 6.87413 73.8126 6.84274 73.8261C7.14765 73.9073 7.45704 73.9884 7.76195 74.0696C7.57362 73.6909 7.38978 73.3122 7.20145 72.9335C6.80687 72.149 5.64553 72.8343 6.03115 73.6142Z" fill="#727272"/>
<path d="M10.1833 83.6587C10.1609 84.2403 10.7617 84.5694 11.2684 84.4116C11.5105 84.335 11.6854 84.1637 11.802 83.9473C11.8199 83.9112 11.8379 83.8706 11.8558 83.8346C11.9544 83.6768 11.8558 83.7219 11.5509 83.9788C11.4119 83.9608 11.4747 83.9608 11.5733 84.0149C11.8917 84.1907 12.3087 84.0915 12.4925 83.7715C12.6719 83.4604 12.5687 83.0231 12.2504 82.8472C11.9186 82.6624 11.5419 82.5542 11.1742 82.7075C10.9859 82.7886 10.829 82.9239 10.7214 83.1042C10.69 83.1538 10.6586 83.2124 10.6406 83.271C10.6317 83.2891 10.6227 83.3071 10.6137 83.3251C10.8469 83.0636 11.089 83.0411 11.3446 83.2575C11.4029 83.3567 11.4612 83.4559 11.5195 83.5551C11.524 83.5911 11.5285 83.6272 11.533 83.6633C11.5464 83.3071 11.2146 82.969 10.8604 82.987C10.4792 83.0005 10.1967 83.28 10.1833 83.6587Z" fill="#727272"/>
<path d="M35.0377 50.1576C35.1184 50.5634 35.2574 50.9421 35.4323 51.3163C35.5982 51.6634 36.0511 51.7085 36.3515 51.5597C36.5219 51.4741 36.6609 51.3208 36.7506 51.154C36.7775 51.1044 36.7954 51.0503 36.8223 50.9962C36.9658 50.6851 36.8179 51.154 36.4726 51.1179C36.3605 51.0863 36.2484 51.0548 36.1318 51.0277C36.0556 50.9917 36.2439 51.1134 36.2439 51.1134C36.3157 51.1675 36.365 51.199 36.4502 51.2351C36.625 51.3118 36.8044 51.3253 36.9927 51.2982C37.3963 51.2306 37.6339 50.9691 37.7864 50.604C37.9254 50.2658 37.6339 49.8601 37.3156 49.7699C36.93 49.6617 36.6295 49.9052 36.486 50.2433C36.643 49.9502 36.8403 49.8871 37.0734 50.0539C37.0555 50.0359 37.0376 50.0179 37.0152 50.0043C36.93 49.9187 36.7685 49.8285 36.652 49.797C36.4367 49.7384 36.2036 49.7744 36.0152 49.8871C35.8583 49.9818 35.7462 50.1306 35.67 50.2929C35.652 50.3335 35.6296 50.3785 35.6117 50.4236C35.5624 50.5679 35.5893 50.4326 35.67 50.3966C35.9749 50.4777 36.2843 50.5589 36.5892 50.64C36.4636 50.374 36.3874 50.0945 36.3291 49.806C36.2618 49.4453 35.8314 49.2424 35.4996 49.3326C35.1364 49.4273 34.9705 49.797 35.0377 50.1576Z" fill="#727272"/>
<path d="M36.5982 57.8982C36.6834 58.3265 36.773 58.7548 36.8582 59.1831C37.0017 59.8909 37.9478 59.7602 38.1541 59.1831C38.2214 58.9892 38.3379 58.863 38.4859 58.7278C38.1317 58.6827 37.7819 58.6376 37.4277 58.5925C37.5443 58.863 37.6653 59.138 37.7819 59.4085C37.9164 59.7196 38.4366 59.8548 38.7011 59.652C38.8626 59.5302 38.9926 59.422 39.0957 59.2417C39.1316 59.1786 39.1719 59.1019 39.1944 59.0298C39.2033 58.9983 39.2168 58.9667 39.2347 58.9397C39.3423 58.7413 39.1361 58.6782 38.6115 58.7503C38.5621 59.111 38.9567 59.4265 39.284 59.4265C39.6876 59.4265 39.9073 59.1155 39.9566 58.7503C40.0329 58.1868 39.5082 57.6773 38.9657 57.6773C38.6922 57.6773 38.4455 57.799 38.2617 57.9929C38.1765 58.0831 38.1182 58.1823 38.0599 58.2905C38.0241 58.3626 37.8851 58.588 38.0241 58.4843C38.329 58.5655 38.6384 58.6466 38.9433 58.7278C38.8267 58.4573 38.7056 58.1823 38.589 57.9118C38.4052 57.488 37.8178 57.515 37.5308 57.7765C37.208 58.0695 37.0017 58.4212 36.8538 58.8269C37.2842 58.8269 37.7192 58.8269 38.1496 58.8269C38.0644 58.3987 37.9747 57.9704 37.8895 57.5421C37.7236 56.6855 36.4233 57.0462 36.5982 57.8982Z" fill="#727272"/>
<path d="M37.7774 68.2403C37.7371 68.5784 37.7774 68.9256 37.8671 69.2502C37.9792 69.6424 38.4904 69.9084 38.8536 69.6559C39.0912 69.4891 39.2347 69.3088 39.3379 69.0383C39.3648 68.9707 39.3872 68.8985 39.4096 68.8264C39.45 68.6821 39.4096 68.876 39.293 68.894C39.172 68.894 39.0554 68.894 38.9343 68.894C38.8222 68.8489 38.7505 68.7813 38.7325 68.6821C38.7191 68.6371 38.7236 68.6506 38.7505 68.7227C38.7639 68.7633 38.7774 68.8084 38.7908 68.8489C38.867 69.0563 38.9747 69.2231 39.145 69.3629C39.5127 69.6604 39.9297 69.6109 40.2885 69.3313C40.5754 69.1059 40.5216 68.61 40.2885 68.3756C40.006 68.0915 39.6248 68.1502 39.3379 68.3756C39.3244 68.3891 39.3065 68.3981 39.293 68.4116C39.3917 68.353 39.4903 68.2944 39.589 68.2358C39.571 68.2403 39.5531 68.2448 39.5352 68.2493C39.6562 68.2493 39.7728 68.2493 39.8939 68.2493C39.9746 68.2629 40.0912 68.5108 40.0418 68.362C40.006 68.2448 39.9611 68.1231 39.8983 68.0194C39.71 67.7129 39.3782 67.537 39.024 67.5731C38.7101 67.6047 38.4545 67.803 38.2841 68.0645C38.2124 68.1772 38.1631 68.3034 38.1227 68.4297C38.1093 68.4702 38.0824 68.5289 38.0779 68.5694C38.0734 68.628 38.0644 68.5559 38.1765 68.4793C38.5038 68.6145 38.8357 68.7498 39.163 68.885C39.1002 68.6641 39.0912 68.4657 39.1181 68.2358C39.1585 67.8706 38.7774 67.5596 38.4456 67.5596C38.0554 67.5641 37.8223 67.8752 37.7774 68.2403Z" fill="#727272"/>
<path d="M37.4053 76.202C37.3694 76.6438 37.4053 77.0766 37.4725 77.5139C37.5532 78.0234 38.2752 78.1541 38.598 77.8115C38.7146 77.6898 38.8356 77.568 38.9612 77.4553C39.0733 77.3561 39.1899 77.257 39.2796 77.1938C38.9522 77.0586 38.6204 76.9233 38.2931 76.7881C38.3334 76.9053 38.3334 76.7701 38.32 76.8963C38.329 76.8016 38.2662 76.9819 38.311 76.9053C38.1362 77.2254 38.2348 77.6447 38.5532 77.8295C38.8626 78.0098 39.2975 77.9107 39.4724 77.5861C39.6652 77.2299 39.728 76.8151 39.5934 76.4274C39.4634 76.0577 38.9791 75.7467 38.607 76.0217C38.2662 76.2741 37.9478 76.5446 37.6564 76.8512C38.033 76.9504 38.4052 77.0496 38.7818 77.1488C38.737 76.8557 38.737 76.5131 38.7594 76.193C38.7863 75.8413 38.4321 75.5032 38.0868 75.5168C37.6922 75.5438 37.4367 75.8233 37.4053 76.202Z" fill="#727272"/>
<path d="M36.9748 85.0339C36.7327 85.4442 36.5489 85.895 36.4457 86.3639C36.365 86.72 36.5534 87.0942 36.9165 87.1979C37.2932 87.3016 37.616 87.0717 37.7461 86.7245C37.7864 86.6118 37.9209 86.3684 37.9927 86.2737C37.6743 86.2737 37.3605 86.2737 37.0421 86.2737C36.9614 86.1745 36.939 86.0663 36.9704 85.9401C36.9121 86.3008 37.0645 86.6659 37.4412 86.7741C37.764 86.8643 38.2079 86.6659 38.2707 86.3008C38.3335 85.9266 38.2662 85.5975 37.9972 85.3179C37.764 85.0745 37.2708 85.0339 37.0466 85.3179C36.7865 85.6425 36.5982 85.9716 36.4502 86.3639C36.8807 86.4856 37.3156 86.6028 37.7461 86.7245C37.8313 86.3458 37.9434 86.0483 38.1407 85.7192C38.3245 85.4036 38.2124 84.9753 37.8985 84.795C37.5802 84.6056 37.1632 84.7183 36.9748 85.0339Z" fill="#727272"/>
<path d="M41.8982 87.7343C41.6202 88.0995 41.4901 88.5504 41.4677 89.0057C41.4543 89.2717 41.6471 89.5287 41.8802 89.6233C42.1448 89.7315 42.4004 89.6684 42.6156 89.4836C42.9474 89.1995 43.2792 88.911 43.611 88.627C43.2568 88.5819 42.907 88.5368 42.5528 88.4917C42.5259 88.4512 42.5394 88.3926 42.5439 88.3475C42.5483 88.3159 42.6201 88.2077 42.5483 88.3204C42.3555 88.6315 42.4811 89.0643 42.7905 89.2446C43.1133 89.434 43.5169 89.3123 43.7097 89.0012C43.9384 88.636 43.9339 88.1717 43.7142 87.802C43.4765 87.4052 42.9878 87.3827 42.656 87.6667C42.3241 87.9507 41.9923 88.2393 41.6605 88.5233C42.0416 88.6811 42.4273 88.8434 42.8084 89.0012C42.8174 88.7983 42.7725 89.0913 42.8174 88.8975C42.8353 88.8299 42.8532 88.7577 42.8757 88.6901C42.8398 88.7848 42.9295 88.5954 42.9295 88.5909C42.9653 88.5278 43.0057 88.4692 43.0505 88.4151C43.2702 88.1221 43.0954 87.6577 42.8084 87.4909C42.4721 87.288 42.1224 87.4413 41.8982 87.7343Z" fill="#727272"/>
<path d="M44.3823 78.88C44.2881 79.3939 44.2343 79.9124 44.2298 80.4398C44.2208 81.1025 45.158 81.373 45.4853 80.7825C45.6871 80.4128 45.9247 80.0927 46.2207 79.7951C45.9472 79.8312 45.6781 79.8673 45.4046 79.8988C45.3911 79.8898 45.3732 79.8763 45.3598 79.8673C45.3015 79.7681 45.2432 79.6689 45.1849 79.5697C45.1714 79.5292 45.2163 79.4029 45.1714 79.5472C45.14 79.6373 45.1221 79.7816 45.1176 79.8673C45.1087 80.0837 45.1714 80.2956 45.297 80.4714C45.4405 80.6652 45.6781 80.796 45.9247 80.796C46.0593 80.796 46.2162 80.7554 46.3328 80.6923C46.3552 80.6788 46.3731 80.6698 46.3955 80.6562C46.5032 80.5886 46.4718 80.5841 46.3014 80.6427C46.1893 80.6111 46.0772 80.5796 45.9606 80.5525C45.7812 80.4624 45.7678 80.3587 45.7857 80.2279C45.7364 80.5886 45.8754 80.9538 46.2565 81.062C46.5704 81.1476 47.0323 80.9538 47.0861 80.5886C47.1399 80.2009 47.1219 79.8087 46.826 79.5156C46.678 79.3714 46.4538 79.2857 46.2476 79.2902C46.1131 79.2947 45.9561 79.3398 45.8395 79.4029C45.8081 79.421 45.6602 79.4841 45.7454 79.466C45.8664 79.466 45.983 79.466 46.1041 79.466C46.0862 79.4615 46.0637 79.4525 46.0458 79.448C46.1444 79.5066 46.2431 79.5652 46.3417 79.6238C46.3866 79.998 46.4269 80.0927 46.4673 79.9078C46.4852 79.8628 46.4942 79.8177 46.5032 79.7681C46.5256 79.6644 46.5345 79.5562 46.5256 79.448C46.5076 79.1505 46.3552 78.8664 46.0817 78.7357C45.8126 78.6004 45.4898 78.6185 45.2656 78.8394C44.8934 79.2136 44.5751 79.6373 44.3195 80.0972C44.7365 80.2099 45.1535 80.3226 45.575 80.4398C45.5795 80.0386 45.6109 79.6373 45.6826 79.2406C45.7454 78.88 45.584 78.5103 45.2118 78.4066C44.88 78.3164 44.445 78.5193 44.3823 78.88Z" fill="#727272"/>
<path d="M45.288 69.5704C45.0952 70.0348 45.0907 70.5622 45.2387 71.0401C45.445 71.6983 46.3148 71.6668 46.5346 71.0401C46.6467 70.7155 46.8484 70.4585 47.104 70.2331C46.7229 70.0753 46.3373 69.913 45.9561 69.7553C45.9696 69.9852 45.9875 70.2151 46.001 70.4405C46.0279 70.8372 46.2879 71.0717 46.6736 71.1168C46.8888 71.1438 47.0861 71.0717 47.2654 70.9545C47.3417 70.9049 47.4089 70.8463 47.4672 70.7786C47.4896 70.7471 47.5165 70.72 47.539 70.693C47.6197 70.6073 47.5524 70.6254 47.3327 70.7471C47.2206 70.7155 47.1085 70.684 46.9919 70.6569C46.956 70.6163 46.9157 70.5758 46.8798 70.5352C46.8484 70.4225 46.817 70.3098 46.7901 70.1926C46.7901 70.2106 46.7901 70.2286 46.7946 70.2467C46.826 70.134 46.8574 70.0212 46.8843 69.904C46.8753 69.9176 46.8664 69.9356 46.8574 69.9491C46.4 70.693 47.5659 71.3737 48.0187 70.6299C48.2878 70.1926 48.0636 69.6245 47.5928 69.4532C47.3461 69.363 47.095 69.3811 46.8664 69.5073C46.7722 69.5569 46.6915 69.629 46.6153 69.7057C46.5973 69.7237 46.5839 69.7462 46.5659 69.7643C46.4763 69.8544 46.5121 69.8544 46.6736 69.7643C46.8978 69.9897 47.122 70.2151 47.3461 70.4405C47.3327 70.2106 47.3148 69.9807 47.3013 69.7553C47.261 69.1556 46.6018 68.8806 46.1534 69.2774C45.723 69.6606 45.427 70.1385 45.2387 70.6795C45.6692 70.6795 46.1041 70.6795 46.5346 70.6795C46.4494 70.4044 46.4763 70.1926 46.5839 69.9311C46.7229 69.593 46.4314 69.1872 46.1131 69.097C45.7274 68.9888 45.427 69.2323 45.288 69.5704Z" fill="#727272"/>
<path d="M44.7276 57.7178C44.7634 58.0964 44.8038 58.4797 44.8397 58.8584C44.871 59.192 45.0683 59.4805 45.4226 59.5211C45.7454 59.5617 46.0772 59.3678 46.1624 59.0387C46.2342 58.7502 46.3328 58.4887 46.4763 58.2317C46.0907 58.2317 45.7006 58.2317 45.315 58.2317C45.3822 58.3579 45.4495 58.4842 45.5123 58.6059C45.7589 59.0702 46.4135 59.0161 46.6736 58.6059C46.696 58.5698 46.7274 58.5383 46.7274 58.5247C46.7991 58.4616 46.7498 58.4661 46.5884 58.5383C46.5167 58.5788 46.4449 58.5879 46.3732 58.5743C46.2925 58.4932 46.2118 58.412 46.131 58.3309C46.1266 58.3128 46.1221 58.2948 46.1176 58.2768C46.3777 59.1018 47.678 58.7502 47.4135 57.9161C47.2789 57.4923 46.9112 57.2263 46.4629 57.2399C46.0279 57.2534 45.723 57.578 45.5078 57.9206C45.8934 57.9206 46.2835 57.9206 46.6691 57.9206C46.6019 57.7944 46.5346 57.6682 46.4718 57.5464C46.2387 57.1046 45.5481 57.1091 45.3105 57.5464C45.1177 57.9026 44.9652 58.2813 44.8621 58.678C45.3015 58.7366 45.7409 58.7997 46.1848 58.8584C46.149 58.4797 46.1086 58.0964 46.0727 57.7178C46.0369 57.3526 45.7903 57.0415 45.4002 57.0415C45.0639 57.0415 44.6917 57.3526 44.7276 57.7178Z" fill="#727272"/>
<path d="M41.3959 50.1575C41.5663 50.5902 41.7771 50.9509 42.073 51.3116C42.4138 51.7263 43.055 51.4558 43.1985 51.014C43.3016 50.6894 43.3465 50.3378 43.3151 49.9997C42.8981 50.1124 42.4811 50.2251 42.0596 50.3423C42.1896 50.5948 42.3735 50.8247 42.5932 51.005C42.8757 51.2349 43.2702 51.28 43.5438 51.005C43.7814 50.7661 43.8262 50.2792 43.5438 50.0493C43.463 49.9861 43.3868 49.914 43.324 49.8374C43.2568 49.7517 43.3644 49.905 43.3061 49.8103C43.2747 49.7607 43.2478 49.7111 43.2209 49.6615C43.0819 49.391 42.7366 49.2693 42.4586 49.346C42.1941 49.4181 41.9385 49.7066 41.9654 49.9997C41.9923 50.2837 41.9833 50.3964 41.8982 50.6534C42.2748 50.5542 42.647 50.455 43.0236 50.3558C42.9653 50.2882 42.907 50.2025 42.8398 50.0853C42.8084 50.0312 42.777 49.9726 42.7456 49.9185C42.7366 49.905 42.6649 49.7337 42.6873 49.8013C42.5528 49.4632 42.2389 49.2242 41.8578 49.3279C41.5439 49.4136 41.2614 49.8148 41.3959 50.1575Z" fill="#727272"/>
<path d="M48.1891 49.6345C48.2429 49.9185 48.3506 50.1935 48.4985 50.446C48.651 50.703 48.9693 50.8382 49.2563 50.7571C49.5612 50.6714 49.7226 50.4054 49.7495 50.1034C49.7809 49.7878 49.8123 49.4677 49.8437 49.1521C49.5074 49.346 49.1711 49.5398 48.8303 49.7382C49.0366 49.8915 49.2429 50.0493 49.4491 50.2025C49.7406 50.4189 50.2024 50.2521 50.3683 49.9591C50.5701 49.6165 50.4177 49.2513 50.1262 49.0349C49.9199 48.8816 49.7137 48.7238 49.5074 48.5705C49.3191 48.4308 49.0187 48.4578 48.8303 48.5705C48.6106 48.7013 48.5209 48.9087 48.4985 49.1566C48.4671 49.4722 48.4358 49.7923 48.4044 50.1079C48.8214 49.9952 49.2384 49.8824 49.6599 49.7652C49.5523 49.5849 49.5254 49.4992 49.485 49.2783C49.4177 48.9177 48.9873 48.7148 48.6555 48.805C48.2878 48.9041 48.1264 49.2738 48.1891 49.6345Z" fill="#727272"/>
<path d="M51.1754 57.7494C51.2382 58.1236 51.3279 58.4843 51.449 58.8449C51.588 59.2732 52.0364 59.4536 52.4354 59.2507C52.682 59.1245 52.839 58.89 52.9018 58.624C52.9331 58.5023 52.9376 58.3716 52.9466 58.2408C52.9466 58.1957 52.9511 58.1507 52.9556 58.1056C52.9466 58.2949 52.821 58.4167 52.5744 58.4798C52.4623 58.4482 52.3502 58.4167 52.2337 58.3896C52.7628 58.6511 53.1753 58.8269 53.7806 58.6917C54.6236 58.5023 54.2694 57.1949 53.4219 57.3888C53.2112 57.4384 53.0901 57.3121 52.9107 57.222C52.5969 57.0687 52.2381 57.0912 51.9646 57.3076C51.7584 57.4699 51.6642 57.6953 51.6283 57.9523C51.6149 58.0515 51.6104 58.1462 51.6014 58.2453C51.5925 58.331 51.5969 58.3355 51.6059 58.2679C51.5611 58.4212 51.6104 58.358 51.7584 58.0875C52.0857 58.2228 52.4175 58.358 52.7448 58.4933C52.6282 58.1326 52.5386 57.772 52.4713 57.3978C52.4085 57.0371 51.9691 56.8342 51.6418 56.9244C51.2651 57.0191 51.1127 57.3888 51.1754 57.7494Z" fill="#727272"/>
<path d="M52.7403 67.5325C52.6955 67.8752 52.6462 68.2178 52.6013 68.5604C52.561 68.8625 52.6282 69.16 52.9107 69.3223C53.1439 69.4621 53.5474 69.4486 53.7268 69.2186C53.8254 69.0879 53.9241 68.9797 54.081 68.9256C53.7985 68.7092 53.5116 68.4928 53.2291 68.2719C53.238 68.5424 53.2425 68.8129 53.2515 69.0834C53.265 69.5342 53.6685 69.8408 54.1034 69.7371C54.3187 69.6875 54.498 69.5793 54.6684 69.4441L54.8343 69.3133C54.8209 69.2953 54.6057 69.3088 54.5563 69.2547C54.498 69.1555 54.4397 69.0563 54.3815 68.9572C54.3904 68.9797 54.3949 69.0022 54.4039 69.0248C54.6864 69.8408 55.9867 69.4891 55.6997 68.6641C55.5428 68.2178 55.1841 67.9653 54.7088 67.9789C54.516 67.9834 54.3142 68.0465 54.1483 68.1457C54.0138 68.2268 53.8882 68.3936 53.7358 68.4297C54.0183 68.6461 54.3052 68.8625 54.5877 69.0834C54.5787 68.8129 54.5743 68.5424 54.5653 68.2719C54.5563 67.8571 54.1393 67.4739 53.7133 67.6182C53.3412 67.7489 53.0094 67.9473 52.7672 68.2629C53.1439 68.4838 53.5161 68.7002 53.8927 68.9211C53.9375 68.5785 53.9869 68.2358 54.0317 67.8932C54.081 67.5325 53.9465 67.1674 53.5609 67.0592C53.256 66.9735 52.7897 67.1674 52.7403 67.5325Z" fill="#727272"/>
<path d="M50.8078 78.7311C50.7136 79.1144 50.6194 79.4976 50.5298 79.8808C50.4446 80.2324 50.6374 80.6201 51.0006 80.7148C51.3234 80.8005 51.6328 80.7373 51.8974 80.5255C52.1081 80.3541 52.1843 80.0881 52.3771 79.9213C52.2785 79.9799 52.1798 80.0386 52.0812 80.0972C52.1126 80.0836 52.144 80.0701 52.1798 80.0566C52.0588 80.0566 51.9422 80.0566 51.8211 80.0566C51.8525 80.0611 51.8839 80.0701 51.9198 80.0746C51.7853 79.9709 51.6507 79.8672 51.5162 79.7635C51.5072 79.7094 51.5117 79.723 51.5252 79.8131C51.5566 79.8898 51.588 79.9664 51.6238 80.0431C51.7135 80.1918 51.8525 80.2955 52.005 80.3632C52.1664 80.4353 52.3457 80.4443 52.5206 80.4082C52.5789 80.4037 52.6372 80.3857 52.691 80.3632C52.9556 80.2775 52.9018 80.2504 52.5296 80.2865C52.4489 80.2054 52.3682 80.1242 52.2875 80.0431C52.2964 80.0566 52.3099 80.0746 52.3188 80.0881C52.2875 79.9754 52.2561 79.8627 52.2292 79.7455C52.2292 79.7635 52.2292 79.7861 52.2247 79.8041C52.1843 80.6742 53.5295 80.6742 53.5699 79.8041C53.5878 79.4344 53.3367 79.1234 52.9914 79.0152C52.83 78.9656 52.6507 78.9611 52.4847 79.0016C52.4265 79.0152 52.1978 79.0603 52.265 79.0693C52.3771 79.1008 52.4892 79.1324 52.6058 79.1594C52.5834 79.1459 52.5655 79.1279 52.543 79.1143C52.6237 79.1955 52.7045 79.2766 52.7852 79.3578C52.7538 79.2947 52.682 79.0557 52.5699 78.9385C52.3906 78.7582 52.0633 78.677 51.8211 78.7447C51.6238 78.7988 51.4534 78.916 51.3189 79.0648C51.2472 79.1459 51.1844 79.2361 51.1306 79.3307C51.1127 79.3623 51.0992 79.3939 51.0813 79.4209C50.9557 79.5922 51.0499 79.5877 51.3638 79.4029C51.5207 79.6824 51.6776 79.9574 51.8346 80.2369C51.9287 79.8537 52.0229 79.4705 52.1126 79.0873C52.3099 78.2442 51.014 77.8836 50.8078 78.7311Z" fill="#727272"/>
<path d="M49.3819 86.8642C49.4805 86.9408 49.5792 87.0174 49.6778 87.0941C49.9648 87.3195 50.4311 87.1392 50.597 86.8506C50.7988 86.5035 50.6463 86.1473 50.3549 85.9264C50.2562 85.8498 50.1576 85.7731 50.0589 85.6965C49.772 85.4711 49.3056 85.6514 49.1397 85.94C48.938 86.2871 49.0949 86.6387 49.3819 86.8642Z" fill="#727272"/>
</g>
<g clip-path="url(#clip1_38938_301)">
<path d="M19.2992 44.7374C19.8584 40.1054 16.6253 36.647 13.1803 33.9798C11.1737 32.4239 9.21221 31.1259 7.90455 28.8988C7.2372 27.7564 6.5969 26.4672 6.22264 25.2003C5.49215 22.7332 6.75472 18.8569 9.87957 21.7019C11.6787 23.3422 12.0936 25.4581 13.4689 27.2807C14.2444 28.312 15.4349 28.8632 16.6749 28.2053C20.404 26.2316 17.5181 19.3858 16.6839 16.6653C15.6738 13.3714 15.1418 10.2019 16.8417 7.03235C17.4009 5.99215 18.0276 4.92083 18.7446 3.98287C19.209 3.37831 19.7997 2.72485 20.4626 2.30699C21.8334 1.43571 22.6585 1.43571 24.1736 1.89802C25.7879 2.39145 25.8014 2.47591 26.1306 4.0051C26.2839 4.7119 26.347 5.48983 26.3831 6.21886C26.4598 7.76138 26.3335 9.31724 26.0134 10.8331C25.4136 13.7092 23.6866 16.2519 23.3079 19.1725C23.0283 21.3196 23.2222 28.1431 26.8115 27.503C31.0185 26.7517 30.7164 20.0927 34.9099 19.2036C38.4 18.4612 40.1045 22.2442 38.6255 24.8402C37.8229 26.2538 36.4882 27.3474 35.203 28.312C32.9124 30.0323 30.1122 30.9303 27.8621 32.6684C23.7903 35.8246 25.1431 40.7855 26.816 44.853C27.1407 45.6398 28.4483 45.2931 28.1191 44.4974C26.9919 41.7546 25.576 38.3984 27.1001 35.5179C28.5114 32.8507 32.236 31.9172 34.6394 30.3435C37.886 28.2187 42.544 24.2179 39.7934 20.0082C37.4937 16.4831 33.0386 17.6611 30.9374 20.6128C30.3016 21.5063 29.8101 22.4887 29.2464 23.4266C28.9894 23.8534 28.7324 24.2846 28.4303 24.6846C28.2138 24.9425 27.9974 25.1959 27.781 25.4537C26.072 25.8271 25.1882 25.3781 25.1296 24.0979C23.4161 20.5061 25.4903 16.8254 26.6537 13.5136C27.5194 11.0509 27.8892 8.42817 27.7043 5.82767C27.578 4.02732 27.3887 1.5913 25.6707 0.515535C24.1601 -0.431314 21.8379 0.111013 20.3544 0.848933C18.1449 1.95137 16.7921 4.2896 15.6738 6.37C12.8015 11.7133 15.7009 16.4208 16.7696 21.8041C16.9094 22.5198 17.2656 24.089 17.0266 24.8847C16.2961 25.5426 15.5656 26.1961 14.8306 26.854C14.4113 26.325 14.0956 25.7471 13.8747 25.1114C13.4508 24.1823 13.0044 23.3155 12.3867 22.4887C11.4127 21.1817 9.57295 19.0347 7.69262 19.1414C5.86641 19.248 4.79323 21.1506 4.59934 22.7376C4.31075 25.0847 5.58684 27.5874 6.74119 29.5789C9.9427 35.0956 18.8663 37.1271 17.9465 44.7463C17.8473 45.5865 19.2 45.582 19.2992 44.7374Z" fill="#46A358"/>
<path d="M30.9869 22.573C31.9609 17.7054 30.1212 13.2557 29.7379 8.45031C29.5079 5.57865 30.748 0.986648 34.689 2.29357C37.6244 3.26709 38.7382 6.71664 38.5398 9.47718C38.3955 11.4953 37.4125 17.4165 41.3535 16.8653C44.7354 16.3941 46.4804 10.8374 48.1218 8.48143C49.5286 6.46326 52.6354 3.51603 55.368 4.33841C59.6968 5.64088 56.9237 10.7619 54.9306 12.7756C51.5713 16.1674 47.991 19.1679 45.0285 22.9464C43.3105 25.138 41.8225 28.7387 45.6327 29.7211C47.0982 30.0989 48.5096 29.5966 49.8307 29.0009C50.8949 28.5209 51.9095 27.9474 53.0413 27.6318C55.1065 27.0539 57.5008 27.5073 56.1346 30.0367C52.9376 35.9623 45.6192 31.5926 40.8981 34.0775C36.8939 36.189 35.9605 40.8566 36.3393 44.9507C36.416 45.7997 37.7732 45.8086 37.6921 44.9507C37.426 42.0968 37.656 39.0118 39.6581 36.7491C42.2463 33.8241 45.7003 34.891 49.1273 34.8243C52.6264 34.7576 57.1311 33.0862 57.8571 29.2321C58.6507 25.0091 53.7718 25.827 51.2692 26.845C50.1644 27.294 49.1318 27.9919 47.9775 28.3208C47.0621 28.5831 45.6147 28.7253 44.8932 27.8763C44.1943 27.0495 44.7579 25.6581 45.1908 24.9557C46.7735 22.3774 49.1995 20.0259 51.3548 17.9055C54.3264 14.9805 59.3947 11.8776 58.9573 7.10783C58.6236 3.45824 55.2057 2.1202 52.0538 3.48935C50.1599 4.31174 48.5952 5.61865 47.3597 7.25008C45.7454 9.37938 44.8842 12.3044 42.9588 14.1803C42.2644 14.856 41.5835 16.2918 40.0323 14.8827C39.3424 14.2559 39.5498 12.5844 39.622 11.7265C39.7167 10.6018 39.9602 9.50385 39.9241 8.3703C39.8655 6.45437 39.2207 4.51177 37.9626 3.02704C35.3022 -0.102451 30.7344 0.0353538 28.9668 3.96056C27.9117 6.30768 28.3761 8.99264 28.818 11.4287C29.4674 15.0249 30.4188 18.5545 29.6838 22.2174C29.517 23.0576 30.8201 23.4176 30.9869 22.573Z" fill="#46A358"/>
<path d="M30.6849 31.0059C30.0491 35.589 29.0075 40.0787 27.5555 44.4796C27.285 45.2975 28.5926 45.6487 28.8587 44.8352C30.3106 40.4344 31.3522 35.9446 31.988 31.3615C32.1053 30.5169 30.8021 30.1568 30.6849 31.0059Z" fill="#46A358"/>
<path d="M14.5059 43.9728C14.3301 40.4432 11.8455 38.0605 8.98673 36.2468C7.13346 35.0688 5.10434 34.0864 3.5126 32.5528C2.82721 31.8949 1.55111 30.6191 1.48348 29.5967C1.25351 26.1871 5.4786 28.841 6.4165 29.6278C7.07484 30.1834 8.0353 29.241 7.37245 28.6854C5.89795 27.4451 3.25107 25.8315 1.22645 26.765C-0.405863 27.5163 -0.135313 29.3788 0.491461 30.7213C3.12932 36.4247 12.806 37.0781 13.1532 43.9728C13.1938 44.8263 14.551 44.8307 14.5059 43.9728Z" fill="#46A358"/>
<path d="M44.8391 45.293C46.5256 42.7859 48.7486 40.7366 51.4721 39.3585C53.9522 38.105 57.0274 37.8871 59.2234 36.1135C61.744 34.0775 61.8748 29.0855 57.7038 29.2144C56.8335 29.241 56.8335 30.5746 57.7038 30.548C59.3496 30.7702 60.017 31.6682 59.7149 33.2374C59.3767 34.1398 58.804 34.851 57.9969 35.3667C57.0094 36.0557 55.8099 36.3713 54.6736 36.7269C53.2262 37.1803 51.8148 37.656 50.4756 38.3672C47.6889 39.852 45.4118 42.0302 43.6668 44.6218C43.1843 45.3375 44.3567 46.0043 44.8391 45.293Z" fill="#46A358"/>
<path d="M48.5141 33.5619C42.7829 34.6287 40.6681 40.252 39.3109 45.173C39.0809 46.0043 40.3886 46.3554 40.614 45.5286C41.8495 41.0522 43.6307 35.8245 48.8748 34.851C49.7271 34.6865 49.3663 33.4018 48.5141 33.5619Z" fill="#46A358"/>
<path d="M18.2937 13.2647C17.6218 10.602 18.4605 7.68585 20.6339 5.89884C21.0713 5.52099 21.5673 5.23205 22.1129 5.03201C23.6145 5.34762 24.3134 6.13889 24.2097 7.4058C24.2368 8.14372 24.0925 8.87275 23.9166 9.584C23.5604 11.0198 22.9336 12.3845 22.4692 13.7893C21.2742 17.4077 19.5562 23.3244 22.7848 26.405C23.0959 26.7029 23.5784 26.2317 23.2628 25.9338C20.431 23.2355 21.883 18.0479 22.8524 14.8161C23.6911 12.0156 25.9683 8.29486 24.4307 5.35207C23.2312 3.05829 20.4806 4.92087 19.3127 6.26336C17.5857 8.25041 17.0041 10.922 17.6398 13.4425C17.7481 13.8604 18.3974 13.6826 18.2937 13.2647Z" fill="#46A358"/>
<path d="M32.5877 24.0623C32.9755 23.2132 33.7601 22.013 34.8107 21.8707C36.4115 21.6529 37.2367 23.6355 36.3799 24.9469C35.5728 26.1827 34.0352 27.0451 32.7095 27.5741C30.5045 28.4498 29.0255 29.6589 27.4247 31.3881C27.1316 31.7038 27.6096 32.1794 27.9027 31.8593C28.8722 30.8058 29.8642 29.7123 31.1268 28.9832C32.1323 28.4009 33.3002 28.1742 34.3102 27.6052C35.5412 26.9073 37.5343 25.4003 37.6786 23.88C37.7958 22.6531 36.4837 21.2306 35.2572 21.155C33.7782 21.0617 32.5426 22.5553 32.006 23.7289C31.8257 24.1112 32.4119 24.4535 32.5877 24.0623Z" fill="#46A358"/>
<path d="M7.3003 24.8358C7.4491 23.6667 7.89551 23.2355 8.63501 23.5511C8.89654 23.5556 9.11298 23.6489 9.29335 23.8312C9.64958 24.0623 9.88405 24.4046 10.096 24.7647C10.4748 25.4093 10.6506 26.1605 10.9302 26.8451C11.2864 27.7253 11.7554 28.441 12.5625 28.9655C12.9277 29.2055 13.2659 28.6277 12.9052 28.3876C10.9212 27.0896 11.4758 23.72 8.99575 22.9021C7.50772 22.4131 6.01068 23.6845 6.71862 25.1692C6.90349 25.5604 7.48517 25.2226 7.3003 24.8358Z" fill="#46A358"/>
<path d="M31.5326 7.58367C31.1809 5.66329 33.2325 4.13411 34.8017 5.53438C35.6675 6.30786 36.0012 7.73036 36.0057 8.84169C36.0147 10.3486 35.3158 11.6956 35.6134 13.207C35.6945 13.6293 36.3484 13.4515 36.2672 13.0292C35.8929 11.131 36.9661 9.31289 36.4836 7.34362C36.1951 6.16561 35.6089 4.85425 34.3733 4.40972C32.1458 3.61401 30.509 5.73887 30.8787 7.75703C30.9599 8.17934 31.6092 8.00152 31.5326 7.58367Z" fill="#46A358"/>
<path d="M31.1944 11.98C32.2946 14.2605 32.8357 16.2609 32.7546 18.7902C32.741 19.2214 33.4174 19.217 33.4309 18.7902C33.5166 16.1319 32.9304 14.0293 31.7806 11.6466C31.5912 11.2599 31.0095 11.5977 31.1944 11.98Z" fill="#46A358"/>
<path d="M48.735 10.0729C49.3888 8.60153 50.6243 7.67246 52.0538 6.97455C52.4641 6.76117 52.8879 6.5878 53.3298 6.45C55.2372 7.09012 55.7197 7.97474 54.7773 9.11274C54.3264 9.81065 53.6725 10.4374 53.1089 11.0509C50.9625 13.3847 48.6448 15.5451 46.1963 17.5633C45.8627 17.8389 46.3406 18.3101 46.6743 18.0345C48.8883 16.2119 50.9941 14.2737 52.9601 12.1933C54.1415 10.9442 56.4096 9.09051 55.9136 7.1168C54.9261 3.20493 48.9785 7.86805 48.1488 9.73952C47.9775 10.1263 48.5637 10.4641 48.735 10.0729Z" fill="#46A358"/>
<path d="M44.9158 19.9858C42.7559 21.5506 41.4437 23.831 41.1957 26.4582C41.1551 26.885 41.8315 26.8805 41.8721 26.4582C42.0976 24.0844 43.306 21.9729 45.2585 20.5593C45.6057 20.3104 45.2675 19.728 44.9158 19.9858Z" fill="#46A358"/>
<path d="M49.195 31.1082C49.6369 30.8459 50.0788 30.5703 50.5432 30.3436C50.8949 30.1524 51.2647 30.0057 51.6525 29.9035C52.3785 29.6056 52.622 30.1613 52.3785 31.5705C51.9005 32.4995 49.3122 32.5351 48.5096 32.4862C46.503 32.3706 44.6137 31.8283 42.6341 32.4284C42.2193 32.5529 42.3952 33.1974 42.8145 33.073C45.1908 32.3484 47.504 33.4019 49.9029 33.1397C51.2061 32.993 53.0503 32.4017 53.6996 31.1571C54.0604 30.4636 53.9747 29.5479 53.1856 29.17C51.8915 28.5521 49.8714 29.9213 48.8523 30.5303C48.4825 30.757 48.8207 31.3349 49.195 31.1082Z" fill="#46A358"/>
<path d="M39.1395 33.5886C35.6224 36.4025 34.3417 40.67 33.9855 44.973C33.9495 45.3998 34.6258 45.3998 34.6619 44.973C35.0046 40.8345 36.2356 36.7626 39.6175 34.0598C39.9557 33.7887 39.4732 33.3219 39.1395 33.5886Z" fill="#46A358"/>
<path d="M24.0022 34.722C22.9561 36.5091 22.9877 38.4561 23.2176 40.4565C23.4115 42.1368 23.6325 43.786 24.8094 45.0929C25.098 45.413 25.5759 44.9418 25.2873 44.6217C24.133 43.3415 23.9887 41.5634 23.8354 39.9275C23.6731 38.2249 23.6956 36.5757 24.5884 35.0554C24.8049 34.6865 24.2232 34.3531 24.0022 34.722Z" fill="#46A358"/>
<path d="M5.34334 30.3301C3.38636 30.3568 4.16193 32.3883 5.20806 33.1173C6.51572 34.0286 8.00374 34.6376 9.39257 35.4066C11.0294 36.3135 11.6877 37.8427 12.9458 39.1185C13.2479 39.4252 13.7259 38.954 13.4238 38.6473C12.1747 37.3804 11.5705 35.8645 9.96072 34.9577C9.14907 34.4998 8.29684 34.1131 7.48068 33.673C7.05682 33.4463 6.63296 33.2195 6.22713 32.9662C6.0648 32.8684 5.89796 32.7661 5.73563 32.6683C4.92849 32.366 4.80224 31.8104 5.34784 31.0013C5.77621 30.9924 5.77622 30.3257 5.34334 30.3301Z" fill="#46A358"/>
<path d="M56.2383 33.402C56.2608 34.2911 55.846 34.7756 54.9848 34.8601C54.5699 35.0245 54.1596 35.1846 53.7447 35.349C53.127 35.5935 52.5047 35.838 51.887 36.0825C50.444 36.6515 48.9966 37.225 47.5536 37.794C47.1523 37.9495 47.3282 38.5986 47.734 38.4385C49.3844 37.7851 51.0347 37.1361 52.6851 36.4826C53.9071 35.9981 55.4672 35.6513 56.5539 34.8956C57.4964 34.2377 57.5234 32.873 56.2338 32.7352C55.8054 32.6863 55.8099 33.3576 56.2383 33.402Z" fill="#46A358"/>
<path d="M46.0025 38.7183C44.1898 40.4076 42.7604 42.3902 41.7503 44.6395C41.5745 45.0262 42.1561 45.3685 42.3365 44.9773C43.324 42.7814 44.7083 40.8432 46.4849 39.194C46.7961 38.8962 46.3181 38.425 46.0025 38.7183Z" fill="#46A358"/>
<path d="M14.5511 41.6347C15.0696 42.3904 15.4033 43.2038 15.5611 44.1018C15.6333 44.5241 16.2871 44.3463 16.215 43.924C16.0481 42.9771 15.6829 42.0925 15.1373 41.2968C14.8938 40.9456 14.3076 41.279 14.5511 41.6347Z" fill="#46A358"/>
</g>
<defs>
<clipPath id="clip0_38938_301">
<rect width="55" height="48" fill="white" transform="translate(3 45)"/>
</clipPath>
<clipPath id="clip1_38938_301">
<rect width="61" height="46" fill="white"/>
</clipPath>
</defs>
</svg>
