<svg width="75" height="75" viewBox="0 0 75 75" fill="none" xmlns="http://www.w3.org/2000/svg">
<path d="M75 37.5C75 58.2107 58.2107 75 37.5 75C16.7893 75 0 58.2107 0 37.5C0 16.7893 16.7893 0 37.5 0C58.2107 0 75 16.7893 75 37.5ZM3.55688 37.5C3.55688 56.2463 18.7537 71.4431 37.5 71.4431C56.2463 71.4431 71.4431 56.2463 71.4431 37.5C71.4431 18.7537 56.2463 3.55688 37.5 3.55688C18.7537 3.55688 3.55688 18.7537 3.55688 37.5Z" fill="#D8E3D7"/>
<path d="M68.8759 58.0379C65.6394 62.9822 61.2803 67.0917 56.1539 70.0313C51.0275 72.9708 45.2789 74.6572 39.3769 74.953C33.4749 75.2488 27.5866 74.1455 22.1919 71.7332C16.7973 69.3209 12.0492 65.6678 8.33463 61.0718L14.1683 56.3569C17.1399 60.0336 20.9383 62.956 25.2539 64.8858C29.5695 66.8156 34.28 67.6982 39.0015 67.4616C43.723 67.225 48.3217 65.8759 52.4227 63.5243C56.5237 61.1727 60.0109 57.8852 62.6 53.9299L68.8759 58.0379Z" fill="#3B7437"/>
<path d="M46.4851 22C46.4851 30 28.4851 26 28.4851 42C28.4851 48 30.4851 50 30.4851 50H32.4851C32.4851 50 29.4851 48 29.4851 42C29.4851 38 38.4851 34 38.4851 34C38.4851 34 30.5051 38.328 30.5051 42.436C43.2381 44.43 50.2871 29.606 46.4841 22H46.4851Z" fill="#3B7437"/>
</svg>
